HIERARCHY
ROOT hip
{
	OFFSET	0.00  0.00  0.00 
	CHANNELS 6 Xposition Yposition Zposition Xrotation Zrotation Yrotation
	JOINT waist
	{
		OFFSET	0.000000 2.191865 -0.079388
		CHANNELS 3 Xrotation Zrotation Yrotation
		JOINT abdomen
		{
			OFFSET	0.000000 2.770984 0.119082
			CHANNELS 3 Xrotation Zrotation Yrotation
			JOINT chest
			{
				OFFSET	0.000000 2.879627 -0.290598
				CHANNELS 3 Xrotation Zrotation Yrotation
				JOINT neck
				{
					OFFSET	0.000000 12.342733 -1.613748
					CHANNELS 3 Xrotation Zrotation Yrotation
					JOINT head
					{
						OFFSET	0.000000 4.485597 1.807195
						CHANNELS 3 Xrotation Zrotation Yrotation
						End Site
						{
							OFFSET 0.000000 7.191734 2.024398
						}
					}
				}
				JOINT lCollar
				{
					OFFSET	1.858774 10.237258 -1.915852
					CHANNELS 3 Zrotation Yrotation Xrotation
					JOINT lShldr
					{
						OFFSET	6.103279 0.000102 -0.038601
						CHANNELS 3 Zrotation Yrotation Xrotation
						JOINT lForeArm
						{
							OFFSET	10.574100 -0.365985 -0.655940
							CHANNELS 3 Zrotation Yrotation Xrotation
							JOINT lHand
							{
								OFFSET	13.213392 -0.641131 0.276866
								CHANNELS 3 Zrotation Yrotation Xrotation
								JOINT lThumb1
								{
									OFFSET	1.920964 -1.225712 1.722395
									CHANNELS 3 Zrotation Yrotation Xrotation
									JOINT lThumb2
									{
										OFFSET	0.248544 -0.143036 0.768265
										CHANNELS 3 Zrotation Yrotation Xrotation
										JOINT lThumb3
										{
											OFFSET	0.628484 -0.225174 0.508305
											CHANNELS 3 Zrotation Yrotation Xrotation
											End Site
											{
												OFFSET 0.831712 -0.207978 0.609962
											}
										}
									}
								}
								JOINT lIndex1
								{
									OFFSET	5.093442 -0.710319 1.829884
									CHANNELS 3 Zrotation Yrotation Xrotation
									JOINT lIndex2
									{
										OFFSET	0.889470 -0.051998 0.127073
										CHANNELS 3 Zrotation Yrotation Xrotation
										JOINT lIndex3
										{
											OFFSET	0.889570 -0.155981 0.127073
											CHANNELS 3 Zrotation Yrotation Xrotation
											End Site
											{
												OFFSET 0.797115 -0.294470 0.076252
											}
										}
									}
								}
								JOINT lMid1
								{
									OFFSET	5.154641 -0.519844 0.864111
									CHANNELS 3 Zrotation Yrotation Xrotation
									JOINT lMid2
									{
										OFFSET	0.928821 -0.051992 0.050831
										CHANNELS 3 Zrotation Yrotation Xrotation
										JOINT lMid3
										{
											OFFSET	0.984253 -0.311865 0.050831
											CHANNELS 3 Zrotation Yrotation Xrotation
											End Site
											{
												OFFSET 0.779717 -0.606438 -0.050831
											}
										}
									}
								}
								JOINT lRing1
								{
									OFFSET	4.924408 -0.754930 -0.235503
									CHANNELS 3 Zrotation Yrotation Xrotation
									JOINT lRing2
									{
										OFFSET	0.981624 -0.036924 -0.108278
										CHANNELS 3 Zrotation Yrotation Xrotation
										JOINT lRing3
										{
											OFFSET	0.805613 -0.205247 -0.041717
											CHANNELS 3 Zrotation Yrotation Xrotation
											End Site
											{
												OFFSET 0.667431 -0.470481 -0.035991
											}
										}
									}
								}
								JOINT lPinky1
								{
									OFFSET	4.535460 -0.816635 -1.006206
									CHANNELS 3 Zrotation Yrotation Xrotation
									JOINT lPinky2
									{
										OFFSET	0.690596 -0.064334 -0.168800
										CHANNELS 3 Zrotation Yrotation Xrotation
										JOINT lPinky3
										{
											OFFSET	0.598039 -0.111176 -0.071973
											CHANNELS 3 Zrotation Yrotation Xrotation
											End Site
											{
												OFFSET 0.422025 -0.290925 -0.035981
											}
										}
									}
								}
							}
						}
					}
				}
				JOINT rCollar
				{
					OFFSET	-1.858774 10.237258 -1.915852
					CHANNELS 3 Zrotation Yrotation Xrotation
					JOINT rShldr
					{
						OFFSET	-6.103279 0.000102 -0.038601
						CHANNELS 3 Zrotation Yrotation Xrotation
						JOINT rForeArm
						{
							OFFSET	-10.574100 -0.365985 -0.655940
							CHANNELS 3 Zrotation Yrotation Xrotation
							JOINT rHand
							{
								OFFSET	-13.213392 -0.641131 0.276866
								CHANNELS 3 Zrotation Yrotation Xrotation
								JOINT rIndex1
								{
									OFFSET	-5.093442 -0.710319 1.829884
									CHANNELS 3 Zrotation Yrotation Xrotation
									JOINT rIndex2
									{
										OFFSET	-0.889470 -0.051998 0.127073
										CHANNELS 3 Zrotation Yrotation Xrotation
										JOINT rIndex3
										{
											OFFSET	-0.889570 -0.155981 0.127073
											CHANNELS 3 Zrotation Yrotation Xrotation
											End Site
											{
												OFFSET -0.797115 -0.294470 0.076252
											}
										}
									}
								}
								JOINT rThumb1
								{
									OFFSET	-1.920964 -1.225712 1.722395
									CHANNELS 3 Zrotation Yrotation Xrotation
									JOINT rThumb2
									{
										OFFSET	-0.248544 -0.143036 0.768265
										CHANNELS 3 Zrotation Yrotation Xrotation
										JOINT rThumb3
										{
											OFFSET	-0.628484 -0.225174 0.508305
											CHANNELS 3 Zrotation Yrotation Xrotation
											End Site
											{
												OFFSET -0.831712 -0.207978 0.609962
											}
										}
									}
								}
								JOINT rMid1
								{
									OFFSET	-5.154641 -0.519844 0.864111
									CHANNELS 3 Zrotation Yrotation Xrotation
									JOINT rMid2
									{
										OFFSET	-0.928821 -0.051992 0.050831
										CHANNELS 3 Zrotation Yrotation Xrotation
										JOINT rMid3
										{
											OFFSET	-0.984253 -0.311865 0.050831
											CHANNELS 3 Zrotation Yrotation Xrotation
											End Site
											{
												OFFSET -0.779717 -0.606438 -0.050831
											}
										}
									}
								}
								JOINT rRing1
								{
									OFFSET	-4.924408 -0.754930 -0.235503
									CHANNELS 3 Zrotation Yrotation Xrotation
									JOINT rRing2
									{
										OFFSET	-0.981624 -0.036924 -0.108278
										CHANNELS 3 Zrotation Yrotation Xrotation
										JOINT rRing3
										{
											OFFSET	-0.805613 -0.205247 -0.041717
											CHANNELS 3 Zrotation Yrotation Xrotation
											End Site
											{
												OFFSET -0.667431 -0.470481 -0.035991
											}
										}
									}
								}
								JOINT rPinky1
								{
									OFFSET	-4.535460 -0.816635 -1.006206
									CHANNELS 3 Zrotation Yrotation Xrotation
									JOINT rPinky2
									{
										OFFSET	-0.690596 -0.064334 -0.168800
										CHANNELS 3 Zrotation Yrotation Xrotation
										JOINT rPinky3
										{
											OFFSET	-0.598039 -0.111176 -0.071973
											CHANNELS 3 Zrotation Yrotation Xrotation
											End Site
											{
												OFFSET -0.422025 -0.290925 -0.035981
											}
										}
									}
								}
							}
						}
					}
				}
			}
		}
	}
	JOINT lThigh
	{
		OFFSET	5.761895 -0.730553 0.000101
		CHANNELS 3 Xrotation Zrotation Yrotation
		JOINT lShin
		{
			OFFSET	-1.171020 -18.459274 1.627449
			CHANNELS 3 Xrotation Zrotation Yrotation
			JOINT lFoot
			{
				OFFSET	-0.883715 -16.872776 -3.357785
				CHANNELS 3 Xrotation Zrotation Yrotation
				JOINT lToe
				{
					OFFSET	1.287613 -2.778491 2.836049
					CHANNELS 3 Xrotation Yrotation Zrotation
					End Site
					{
						OFFSET 1.362641 -0.436631 3.828194
					}
				}
			}
		}
	}
	JOINT rThigh
	{
		OFFSET	-5.761895 -0.730553 0.000101
		CHANNELS 3 Xrotation Zrotation Yrotation
		JOINT rShin
		{
			OFFSET	1.171020 -18.459274 1.627449
			CHANNELS 3 Xrotation Zrotation Yrotation
			JOINT rFoot
			{
				OFFSET	0.883715 -16.872776 -3.357785
				CHANNELS 3 Xrotation Zrotation Yrotation
				JOINT rToe
				{
					OFFSET	-1.287613 -2.778491 2.836049
					CHANNELS 3 Xrotation Yrotation Zrotation
					End Site
					{
						OFFSET -1.362641 -0.436631 3.828194
					}
				}
			}
		}
	}
}
MOTION
Frames:     4
Frame Time: 0.033333
-0.011507 39.608868 -1.637493 -0.002642 -1.027193 -4.237982 3.017076 2.484340 2.092962 3.288613 -2.449297 2.325420 11.437381 0.099905 0.195352 -16.803913 2.255017 -0.308966 16.862780 3.601799 -0.395691 -9.170304 -15.211174 -0.280764 -70.871460 4.214013 1.376800 -0.015802 -11.049346 -12.232456 26.594696 -4.210507 -1.735469 6.816569 20.665493 13.910007 0.737394 6.611394 1.889753 1.498819 15.763451 3.413396 -16.510094 4.941886 2.632171 -30.641104 0.760545 4.195075 -30.801344 0.244633 2.748222 -26.741848 4.534972 1.659678 -30.918818 0.167252 1.500514 -30.885220 0.095214 -1.667925 -26.546455 -6.029207 -2.387530 -30.915798 -0.230988 -1.539015 -30.896540 0.048887 -1.421516 -24.684418 -10.748388 -8.026765 -30.730358 -0.643216 -3.558057 -30.848944 0.064339 -2.253113 9.140521 15.211239 -0.245707 68.851776 6.751610 1.366461 -0.003875 11.038736 -12.202783 -35.856720 3.942087 -2.072537 6.974530 -4.731179 1.276656 21.030127 -0.296764 2.929311 22.098423 -0.042155 1.992210 -6.853165 -20.699158 13.915245 -0.760142 -6.648059 1.901676 -1.522521 -15.800728 3.422143 17.048761 -4.380857 1.158299 21.214603 -0.043812 1.041919 22.156900 -0.176100 -1.190926 16.945948 5.689683 -1.555744 21.212704 0.052833 -1.075294 22.165134 -0.129441 -1.016793 15.624523 10.091967 -5.705389 21.089445 0.220092 -2.490361 22.131048 -0.186135 -1.614935 -13.407125 -1.036553 6.544452 13.035550 -0.067194 -0.377735 0.160156 0.160303 -9.623240 0.322380 -0.003823 -0.123667 8.125656 2.781802 -3.114276 15.118683 0.103158 0.757584 7.707503 -11.477621 10.365057 -14.715491 0.942834 -5.131089 
-0.011507 39.618160 -1.637493 -0.002408 -0.835959 -4.009882 2.987631 2.356825 1.854052 3.495292 -2.501097 2.176725 11.437381 0.099905 0.195352 -16.787748 1.977283 0.255713 16.859709 3.770983 -0.443283 -9.170524 -15.240463 -0.241699 -70.674446 3.651287 1.359683 -0.015535 -11.050556 -12.203186 26.949642 -4.192743 -0.805561 6.816569 20.665493 13.910007 0.737394 6.611394 1.889753 1.498819 15.763451 3.413396 -16.166204 4.929331 2.583776 -30.303236 0.739975 4.151858 -30.490246 0.234738 2.721652 -26.392195 4.526908 1.642315 -30.577488 0.160922 1.484713 -30.573154 0.098718 -1.651336 -26.199413 -6.014905 -2.359000 -30.574497 -0.224073 -1.523207 -30.584360 0.052179 -1.407483 -24.358057 -10.719422 -7.945571 -30.391342 -0.625975 -3.521579 -30.537258 0.069711 -2.230841 9.140521 15.211239 -0.245707 69.344658 6.497394 1.362657 -0.003875 11.038736 -12.202783 -35.338417 3.957029 -2.054290 7.203837 -4.734295 1.310068 21.252375 -0.305506 2.959423 22.312366 -0.046205 2.011243 -6.853165 -20.699158 13.915245 -0.760142 -6.648059 1.901676 -1.522521 -15.800728 3.422143 17.281845 -4.384253 1.170558 21.438927 -0.046215 1.052805 22.371458 -0.175404 -1.202595 17.177296 5.695980 -1.577030 21.437012 0.055622 -1.086324 22.379768 -0.128629 -1.026704 15.842270 10.103014 -5.760101 21.312386 0.227392 -2.515833 22.345360 -0.184739 -1.630667 -12.992784 -1.637656 4.530074 12.048864 -0.045176 0.016060 0.579574 0.103680 -8.177049 0.101448 -0.007826 -0.045559 9.867524 2.254964 -2.825385 13.549911 0.187737 1.042165 6.129657 -11.123034 10.821604 -14.285187 0.896311 -4.985046 
-0.011507 39.633167 -1.637493 -0.001798 -0.407315 -3.406340 2.938610 2.195446 1.509071 3.820184 -2.581246 1.913054 11.437381 0.099905 0.195352 -16.770721 1.694116 0.833400 16.858829 3.817978 -0.456502 -9.170524 -15.240463 -0.241699 -70.389595 3.070732 1.363166 -0.015535 -11.050556 -12.203186 27.533916 -4.188552 -1.772277 6.816569 20.665493 13.910007 0.737394 6.611394 1.889753 1.498819 15.763451 3.413396 -15.573937 4.908386 2.500861 -29.704679 0.704160 4.075228 -29.945808 0.217770 2.675025 -25.790014 4.513269 1.612298 -29.972849 0.149940 1.456631 -30.027033 0.104632 -1.622262 -25.601730 -5.990687 -2.308643 -29.969906 -0.212056 -1.495104 -30.038044 0.057756 -1.382882 -23.795967 -10.670596 -7.807479 -29.790787 -0.595965 -3.456901 -29.991802 0.078820 -2.191773 9.140521 15.211239 -0.245707 69.860901 6.048311 1.359690 -0.003875 11.038736 -12.202783 -34.653851 3.976509 -2.029985 7.586014 -4.739785 1.365189 21.638887 -0.320986 3.011764 22.662458 -0.052984 2.042356 -6.853165 -20.699158 13.915245 -0.760142 -6.648059 1.901676 -1.522521 -15.800728 3.422143 17.670315 -4.390023 1.190958 21.829052 -0.050496 1.071714 22.722561 -0.174170 -1.221686 17.562876 5.706657 -1.610835 21.827116 0.060575 -1.105478 22.730989 -0.127221 -1.042916 16.205175 10.121892 -5.853477 21.700104 0.240324 -2.560063 22.696056 -0.182328 -1.656402 -11.237378 -2.202703 5.075648 12.011636 -0.230131 -0.912160 -1.254760 0.741379 -8.391129 0.027805 -0.009229 -0.019527 10.827693 1.869979 -2.148276 12.791518 0.232845 1.354366 4.608752 -10.706287 11.096211 -13.561658 0.820593 -4.738803 
-0.011507 39.649963 -1.637493 -0.001051 0.320307 -2.592284 2.870059 2.040897 1.095376 4.205401 -2.808514 1.533024 11.437381 0.099905 0.195352 -16.819380 1.436032 0.611003 16.859709 3.770983 -0.443283 -9.170524 -15.240463 -0.241699 -70.040741 2.208143 1.366609 -0.015535 -11.050556 -12.203186 28.316574 -4.169797 -1.802674 6.816569 20.665493 13.910007 0.737394 6.611394 1.889753 1.498819 15.763451 3.413396 -14.838367 4.883565 2.396962 -28.970911 0.661355 3.980666 -29.284695 0.197762 2.618191 -25.042162 4.496776 1.574053 -29.231668 0.136884 1.422052 -29.363884 0.111441 -1.586883 -24.859453 -5.961338 -2.246004 -29.228788 -0.197731 -1.460452 -29.374659 0.064212 -1.352939 -23.106918 -10.612575 -7.635592 -29.054571 -0.560106 -3.377092 -29.329462 0.089381 -2.144220 9.140521 15.211239 -0.245707 70.311951 5.441713 1.357048 -0.003875 11.038736 -12.202783 -33.861675 3.998687 -2.001575 8.101949 -4.747775 1.439260 22.160654 -0.342442 3.082181 23.129242 -0.062319 2.083773 -6.853165 -20.699158 13.915245 -0.760142 -6.648059 1.901676 -1.522521 -15.800728 3.422143 18.194750 -4.398032 1.218434 22.355721 -0.056480 1.097196 23.190691 -0.172344 -1.247127 18.083410 5.721437 -1.657328 22.353754 0.067469 -1.131283 23.199286 -0.125190 -1.064518 16.695078 10.148299 -5.979259 22.223501 0.258255 -2.619674 23.163651 -0.178869 -1.690660 -9.819215 -3.279772 3.874491 11.578702 -0.110481 -0.376020 -2.396845 1.180940 -8.518798 -0.018221 -0.010121 -0.003256 9.966911 0.993198 -2.628060 15.199576 0.493001 2.816822 3.967537 -10.759288 9.408594 -12.599535 0.724776 -4.410038 
